<?xml version="1.0" encoding="UTF-8"?>
<svg width="366px" height="357px" viewBox="0 0 366 357" version="1.1" xmlns="http://www.w3.org/2000/svg" xmlns:xlink="http://www.w3.org/1999/xlink">
    <title>github</title>
    <g id="Page-1" stroke="none" stroke-width="1" fill="none" fill-rule="evenodd">
        <g id="github" fill="#181616">
            <path d="M183,0 C82.2,0 0.5,81.7 0.5,182.5 C0.5,263.1 52.8,331.5 125.3,355.7 C134.4,357.4 137.8,351.7 137.8,346.9 C137.8,342.5 137.6,328.2 137.6,312.9 C86.8,323.9 76.1,291.4 76.1,291.4 C67.8,270.3 55.8,264.7 55.8,264.7 C39.2,253.4 57,253.6 57,253.6 C75.3,254.9 85,272.4 85,272.4 C101.3,300.3 127.7,292.2 138.1,287.6 C139.7,275.8 144.5,267.8 149.7,263.2 C109.2,258.6 66.5,242.9 66.5,173 C66.5,153.1 73.6,136.8 85.3,124 C83.4,119.4 77.2,100.8 87.1,75.7 C87.1,75.7 102.4,70.8 137.3,94.4 C151.9,90.4 167.5,88.3 183,88.3 C198.5,88.4 214.1,90.4 228.7,94.4 C263.5,70.8 278.8,75.7 278.8,75.7 C288.7,100.8 282.5,119.4 280.6,124 C292.3,136.8 299.4,153.1 299.4,173 C299.4,243.1 256.7,258.5 216.1,263 C222.6,268.7 228.5,279.8 228.5,296.8 C228.5,321.2 228.3,340.9 228.3,346.9 C228.3,351.8 231.6,357.4 240.8,355.7 C313.3,331.5 365.5,263.2 365.5,182.5 C365.5,81.7 283.8,0 183,0 Z" id="XMLID_26_"></path>
            <path d="M69.6,262 C69.2,262.9 67.8,263.2 66.5,262.6 C65.2,262 64.4,260.8 64.9,259.9 C65.3,259 66.7,258.7 68,259.3 C69.3,259.9 70.1,261.1 69.6,262 Z" id="XMLID_30_" fill-rule="nonzero"></path>
            <path d="M77,270.3 C76.1,271.1 74.4,270.7 73.3,269.5 C72.1,268.2 71.9,266.5 72.8,265.7 C73.7,264.9 75.3,265.3 76.5,266.5 C77.7,267.8 77.9,269.5 77,270.3 Z" id="XMLID_31_" fill-rule="nonzero"></path>
            <path d="M84.2,280.8 C83.1,281.6 81.3,280.9 80.1,279.2 C79,277.6 79,275.6 80.1,274.8 C81.2,274 83,274.7 84.2,276.3 C85.4,278 85.4,280 84.2,280.8 Z" id="XMLID_32_" fill-rule="nonzero"></path>
            <path d="M94.1,290.9 C93.1,292 91,291.7 89.4,290.2 C87.8,288.7 87.4,286.6 88.4,285.5 C89.4,284.4 91.6,284.7 93.1,286.2 C94.7,287.8 95.1,289.9 94.1,290.9 Z" id="XMLID_33_" fill-rule="nonzero"></path>
            <path d="M107.7,296.8 C107.3,298.2 105.2,298.9 103.1,298.3 C101,297.7 99.7,296 100.1,294.6 C100.5,293.2 102.6,292.5 104.7,293.1 C106.7,293.7 108.1,295.4 107.7,296.8 Z" id="XMLID_34_" fill-rule="nonzero"></path>
            <path d="M122.6,297.9 C122.7,299.4 120.9,300.7 118.7,300.7 C116.5,300.8 114.8,299.5 114.7,298 C114.7,296.5 116.4,295.2 118.6,295.2 C120.8,295.2 122.6,296.4 122.6,297.9 Z" id="XMLID_35_" fill-rule="nonzero"></path>
            <path d="M136.5,295.6 C136.8,297.1 135.3,298.6 133.1,299 C131,299.4 129,298.5 128.8,297 C128.5,295.5 130.1,294 132.2,293.6 C134.3,293.2 136.2,294.1 136.5,295.6 Z" id="XMLID_36_" fill-rule="nonzero"></path>
        </g>
    </g>
</svg>